# xmcd
#
# Track frame offsets: 
#        182
#        13355
#        26305
#        46237
#        58590
#        72085
#        87427
#        100572
#        109762
#        126022
#        149747
#
# Disc length: 2334 seconds
#
# Revision: 2
# Processed by: cddbd v1.5.2PL0 Copyright (c) Steve Scherf et al.
# Submitted via: ExactAudioCopyFreeDBPlugin 1.0
#
DISCID=92091c0b
DTITLE=Canned Heat - Hallelujah
DYEAR=1969
DGENRE=Blues
TTITLE0=Same All Over
TTITLE1=Change My Ways
TTITLE2=Canned Heat
TTITLE3=Sic 'em Pigs
TTITLE4=I'm Her Man
TTITLE5=Time Was
TTITLE6=Do Not Enter
TTITLE7=Big Fat
TTITLE8=Huautla
TTITLE9=Get Off My Back
TTITLE10=Down In The Gutter, But Free
EXTD=YEAR: 1969
EXTT0=
EXTT1=
EXTT2=
EXTT3=
EXTT4=
EXTT5=
EXTT6=
EXTT7=
EXTT8=
EXTT9=
EXTT10=
PLAYORDER=
